<mxfile host="app.diagrams.net" agent="Mozilla/5.0 (X11; Linux x86_64; rv:134.0) Gecko/20100101 Firefox/134.0" version="26.2.4">
  <diagram name="Page-1" id="2YBvvXClWsGukQMizWep">
    <mxGraphModel dx="1391" dy="934" grid="1" gridSize="10" guides="1" tooltips="1" connect="1" arrows="1" fold="1" page="1" pageScale="1" pageWidth="850" pageHeight="1100" math="0" shadow="0">
      <root>
        <mxCell id="0" />
        <mxCell id="1" parent="0" />
        <mxCell id="RXClTzVUvRsUksylA-aP-36" value="Registration" style="rounded=0;whiteSpace=wrap;html=1;verticalAlign=top;align=left;fontStyle=1;spacingLeft=6;fillColor=#f5f5f5;strokeColor=#666666;fontColor=#666666;" vertex="1" parent="1">
          <mxGeometry x="40" y="40" width="720" height="540" as="geometry" />
        </mxCell>
        <mxCell id="RXClTzVUvRsUksylA-aP-26" value="IMS" style="rounded=0;whiteSpace=wrap;html=1;align=left;verticalAlign=top;fillColor=#fff2cc;fontStyle=1;strokeColor=#d6b656;spacingLeft=6;fontColor=#D6B656;" vertex="1" parent="1">
          <mxGeometry x="190" y="70" width="560" height="500" as="geometry" />
        </mxCell>
        <mxCell id="RXClTzVUvRsUksylA-aP-25" value="&lt;div&gt;OpenSIPS&lt;br&gt;&lt;/div&gt;" style="rounded=0;whiteSpace=wrap;html=1;align=left;verticalAlign=top;fontStyle=1;fillColor=#ffe6cc;strokeColor=#d79b00;spacingLeft=6;fontColor=#D79B00;" vertex="1" parent="1">
          <mxGeometry x="200" y="100" width="400" height="460" as="geometry" />
        </mxCell>
        <mxCell id="aM9ryv3xv72pqoxQDRHE-1" value="PJSUA" style="shape=umlLifeline;perimeter=lifelinePerimeter;whiteSpace=wrap;html=1;container=0;dropTarget=0;collapsible=0;recursiveResize=0;outlineConnect=0;portConstraint=eastwest;newEdgeStyle={&quot;edgeStyle&quot;:&quot;elbowEdgeStyle&quot;,&quot;elbow&quot;:&quot;vertical&quot;,&quot;curved&quot;:0,&quot;rounded&quot;:0};fillColor=#bac8d3;strokeColor=#23445d;fontStyle=1;fontColor=#23445D;" parent="1" vertex="1">
          <mxGeometry x="50" y="130" width="100" height="420" as="geometry" />
        </mxCell>
        <mxCell id="aM9ryv3xv72pqoxQDRHE-5" value="P-CSCF" style="shape=umlLifeline;perimeter=lifelinePerimeter;whiteSpace=wrap;html=1;container=0;dropTarget=0;collapsible=0;recursiveResize=0;outlineConnect=0;portConstraint=eastwest;newEdgeStyle={&quot;edgeStyle&quot;:&quot;elbowEdgeStyle&quot;,&quot;elbow&quot;:&quot;vertical&quot;,&quot;curved&quot;:0,&quot;rounded&quot;:0};fillColor=#bac8d3;strokeColor=#23445d;fontStyle=1;fontColor=#23445D;" parent="1" vertex="1">
          <mxGeometry x="210" y="130" width="100" height="420" as="geometry" />
        </mxCell>
        <mxCell id="RXClTzVUvRsUksylA-aP-1" value="I-CSCF" style="shape=umlLifeline;perimeter=lifelinePerimeter;whiteSpace=wrap;html=1;container=0;dropTarget=0;collapsible=0;recursiveResize=0;outlineConnect=0;portConstraint=eastwest;newEdgeStyle={&quot;edgeStyle&quot;:&quot;elbowEdgeStyle&quot;,&quot;elbow&quot;:&quot;vertical&quot;,&quot;curved&quot;:0,&quot;rounded&quot;:0};fillColor=#bac8d3;strokeColor=#23445d;fontStyle=1;fontColor=#23445D;" vertex="1" parent="1">
          <mxGeometry x="350" y="130" width="100" height="420" as="geometry" />
        </mxCell>
        <mxCell id="RXClTzVUvRsUksylA-aP-2" value="S-CSCF" style="shape=umlLifeline;perimeter=lifelinePerimeter;whiteSpace=wrap;html=1;container=0;dropTarget=0;collapsible=0;recursiveResize=0;outlineConnect=0;portConstraint=eastwest;newEdgeStyle={&quot;edgeStyle&quot;:&quot;elbowEdgeStyle&quot;,&quot;elbow&quot;:&quot;vertical&quot;,&quot;curved&quot;:0,&quot;rounded&quot;:0};fillColor=#bac8d3;strokeColor=#23445d;fontStyle=1;fontColor=#23445D;" vertex="1" parent="1">
          <mxGeometry x="490" y="130" width="100" height="420" as="geometry" />
        </mxCell>
        <mxCell id="RXClTzVUvRsUksylA-aP-4" value="PyHSS" style="shape=umlLifeline;perimeter=lifelinePerimeter;whiteSpace=wrap;html=1;container=0;dropTarget=0;collapsible=0;recursiveResize=0;outlineConnect=0;portConstraint=eastwest;newEdgeStyle={&quot;edgeStyle&quot;:&quot;elbowEdgeStyle&quot;,&quot;elbow&quot;:&quot;vertical&quot;,&quot;curved&quot;:0,&quot;rounded&quot;:0};fillColor=#bac8d3;strokeColor=#23445d;fontStyle=1;fontColor=#23445D;" vertex="1" parent="1">
          <mxGeometry x="640" y="130" width="100" height="420" as="geometry" />
        </mxCell>
        <mxCell id="RXClTzVUvRsUksylA-aP-5" value="REGISTER" style="html=1;verticalAlign=bottom;endArrow=block;edgeStyle=elbowEdgeStyle;elbow=horizontal;curved=0;rounded=0;labelBackgroundColor=none;fontStyle=1;fillColor=#b0e3e6;strokeColor=#0e8088;fontColor=#0E8088;" edge="1" parent="1" source="aM9ryv3xv72pqoxQDRHE-5" target="RXClTzVUvRsUksylA-aP-1">
          <mxGeometry x="0.006" relative="1" as="geometry">
            <mxPoint x="70" y="230" as="sourcePoint" />
            <Array as="points">
              <mxPoint x="330" y="220" />
            </Array>
            <mxPoint x="310" y="230" as="targetPoint" />
            <mxPoint as="offset" />
          </mxGeometry>
        </mxCell>
        <mxCell id="RXClTzVUvRsUksylA-aP-6" value="Cx: Diameter (UAR/UAA)" style="html=1;verticalAlign=bottom;endArrow=block;edgeStyle=elbowEdgeStyle;elbow=horizontal;curved=0;rounded=0;labelBackgroundColor=none;startArrow=classic;startFill=1;align=center;fontStyle=1;fontColor=#B46504;fillColor=#fad7ac;strokeColor=#b46504;" edge="1" parent="1" source="RXClTzVUvRsUksylA-aP-1" target="RXClTzVUvRsUksylA-aP-4">
          <mxGeometry x="0.0374" relative="1" as="geometry">
            <mxPoint x="430" y="250" as="sourcePoint" />
            <Array as="points">
              <mxPoint x="550" y="240" />
            </Array>
            <mxPoint x="560" y="250" as="targetPoint" />
            <mxPoint as="offset" />
          </mxGeometry>
        </mxCell>
        <mxCell id="RXClTzVUvRsUksylA-aP-8" value="REGISTER" style="html=1;verticalAlign=bottom;endArrow=block;edgeStyle=elbowEdgeStyle;elbow=horizontal;curved=0;rounded=0;labelBackgroundColor=none;fontStyle=1;fillColor=#b0e3e6;strokeColor=#0e8088;fontColor=#0E8088;" edge="1" parent="1" source="RXClTzVUvRsUksylA-aP-1" target="RXClTzVUvRsUksylA-aP-2">
          <mxGeometry x="0.006" relative="1" as="geometry">
            <mxPoint x="440" y="260" as="sourcePoint" />
            <Array as="points">
              <mxPoint x="470" y="260" />
            </Array>
            <mxPoint x="710" y="260" as="targetPoint" />
            <mxPoint as="offset" />
          </mxGeometry>
        </mxCell>
        <mxCell id="RXClTzVUvRsUksylA-aP-14" value="401&amp;nbsp; Unauthorized" style="html=1;verticalAlign=bottom;endArrow=none;edgeStyle=elbowEdgeStyle;elbow=horizontal;curved=0;rounded=0;labelBackgroundColor=none;startArrow=classic;startFill=1;fontStyle=1;fillColor=#f8cecc;strokeColor=#b85450;fontColor=#B85450;" edge="1" parent="1" source="aM9ryv3xv72pqoxQDRHE-1" target="aM9ryv3xv72pqoxQDRHE-5">
          <mxGeometry x="0.0052" relative="1" as="geometry">
            <mxPoint x="99.81034482758616" y="390" as="sourcePoint" />
            <Array as="points">
              <mxPoint x="180" y="340" />
            </Array>
            <mxPoint x="249.5" y="390" as="targetPoint" />
            <mxPoint as="offset" />
          </mxGeometry>
        </mxCell>
        <mxCell id="RXClTzVUvRsUksylA-aP-15" value="REGISTER" style="html=1;verticalAlign=bottom;endArrow=block;edgeStyle=elbowEdgeStyle;elbow=vertical;curved=0;rounded=0;labelBackgroundColor=none;fontStyle=1;fillColor=#b0e3e6;strokeColor=#0e8088;fontColor=#0E8088;" edge="1" parent="1" source="aM9ryv3xv72pqoxQDRHE-1" target="aM9ryv3xv72pqoxQDRHE-5">
          <mxGeometry x="0.0052" relative="1" as="geometry">
            <mxPoint x="140" y="400" as="sourcePoint" />
            <Array as="points">
              <mxPoint x="180" y="200" />
            </Array>
            <mxPoint x="380" y="400" as="targetPoint" />
            <mxPoint as="offset" />
          </mxGeometry>
        </mxCell>
        <mxCell id="RXClTzVUvRsUksylA-aP-20" value="401 Unauthorized " style="html=1;verticalAlign=bottom;endArrow=none;edgeStyle=elbowEdgeStyle;elbow=horizontal;curved=0;rounded=0;labelBackgroundColor=none;startArrow=classic;startFill=1;fontStyle=1;fillColor=#f8cecc;strokeColor=#b85450;fontColor=#B85450;" edge="1" parent="1" source="RXClTzVUvRsUksylA-aP-1" target="RXClTzVUvRsUksylA-aP-2">
          <mxGeometry x="0.006" relative="1" as="geometry">
            <mxPoint x="389.8103448275863" y="370" as="sourcePoint" />
            <Array as="points">
              <mxPoint x="470" y="300" />
            </Array>
            <mxPoint x="519.5" y="370" as="targetPoint" />
            <mxPoint as="offset" />
          </mxGeometry>
        </mxCell>
        <mxCell id="RXClTzVUvRsUksylA-aP-21" value="Cx: Diameter (MAR/MAA)" style="html=1;verticalAlign=bottom;endArrow=block;edgeStyle=elbowEdgeStyle;elbow=horizontal;curved=0;rounded=0;labelBackgroundColor=none;startArrow=classic;startFill=1;fontStyle=1;fillColor=#fad7ac;strokeColor=#b46504;fontColor=#B46504;" edge="1" parent="1" source="RXClTzVUvRsUksylA-aP-2" target="RXClTzVUvRsUksylA-aP-4">
          <mxGeometry x="-0.0612" relative="1" as="geometry">
            <mxPoint x="560" y="480" as="sourcePoint" />
            <Array as="points">
              <mxPoint x="610" y="280" />
            </Array>
            <mxPoint x="700" y="480" as="targetPoint" />
            <mxPoint as="offset" />
          </mxGeometry>
        </mxCell>
        <mxCell id="RXClTzVUvRsUksylA-aP-23" value="401 Unauthorized" style="html=1;verticalAlign=bottom;endArrow=none;edgeStyle=elbowEdgeStyle;elbow=horizontal;curved=0;rounded=0;labelBackgroundColor=none;startArrow=classic;startFill=1;fontStyle=1;fillColor=#f8cecc;strokeColor=#b85450;fontColor=#B85450;" edge="1" parent="1" source="aM9ryv3xv72pqoxQDRHE-5" target="RXClTzVUvRsUksylA-aP-1">
          <mxGeometry x="0.006" relative="1" as="geometry">
            <mxPoint x="259.8103448275863" y="380" as="sourcePoint" />
            <Array as="points">
              <mxPoint x="330" y="320" />
            </Array>
            <mxPoint x="389.5" y="380" as="targetPoint" />
            <mxPoint as="offset" />
          </mxGeometry>
        </mxCell>
        <mxCell id="RXClTzVUvRsUksylA-aP-28" value="REGISTER" style="html=1;verticalAlign=bottom;endArrow=block;edgeStyle=elbowEdgeStyle;elbow=horizontal;curved=0;rounded=0;labelBackgroundColor=none;fontStyle=1;fillColor=#b0e3e6;strokeColor=#0e8088;fontColor=#0E8088;" edge="1" parent="1" source="aM9ryv3xv72pqoxQDRHE-5" target="RXClTzVUvRsUksylA-aP-1">
          <mxGeometry relative="1" as="geometry">
            <mxPoint x="260" y="400" as="sourcePoint" />
            <Array as="points">
              <mxPoint x="330" y="400" />
            </Array>
            <mxPoint x="400" y="400" as="targetPoint" />
            <mxPoint as="offset" />
          </mxGeometry>
        </mxCell>
        <mxCell id="RXClTzVUvRsUksylA-aP-29" value="Cx: Diameter (UAR/UAA)" style="html=1;verticalAlign=bottom;endArrow=block;edgeStyle=elbowEdgeStyle;elbow=horizontal;curved=0;rounded=0;labelBackgroundColor=none;startArrow=classic;startFill=1;align=center;fontStyle=1;fillColor=#fad7ac;strokeColor=#b46504;fontColor=#B46504;" edge="1" parent="1" source="RXClTzVUvRsUksylA-aP-1" target="RXClTzVUvRsUksylA-aP-4">
          <mxGeometry x="0.0374" relative="1" as="geometry">
            <mxPoint x="400" y="420" as="sourcePoint" />
            <Array as="points">
              <mxPoint x="550" y="420" />
            </Array>
            <mxPoint x="690" y="420" as="targetPoint" />
            <mxPoint as="offset" />
          </mxGeometry>
        </mxCell>
        <mxCell id="RXClTzVUvRsUksylA-aP-30" value="REGISTER" style="html=1;verticalAlign=bottom;endArrow=block;edgeStyle=elbowEdgeStyle;elbow=horizontal;curved=0;rounded=0;labelBackgroundColor=none;fontStyle=1;fillColor=#b0e3e6;strokeColor=#0e8088;fontColor=#0E8088;" edge="1" parent="1" source="RXClTzVUvRsUksylA-aP-1" target="RXClTzVUvRsUksylA-aP-2">
          <mxGeometry x="0.006" relative="1" as="geometry">
            <mxPoint x="400" y="440" as="sourcePoint" />
            <Array as="points">
              <mxPoint x="470" y="440" />
            </Array>
            <mxPoint x="540" y="440" as="targetPoint" />
            <mxPoint as="offset" />
          </mxGeometry>
        </mxCell>
        <mxCell id="RXClTzVUvRsUksylA-aP-31" value="200 OK" style="html=1;verticalAlign=bottom;endArrow=none;edgeStyle=elbowEdgeStyle;elbow=horizontal;curved=0;rounded=0;labelBackgroundColor=none;startArrow=classic;startFill=1;fillColor=#d5e8d4;strokeColor=#82b366;fontColor=#82B366;fontStyle=1" edge="1" parent="1" source="aM9ryv3xv72pqoxQDRHE-1" target="aM9ryv3xv72pqoxQDRHE-5">
          <mxGeometry x="0.0052" relative="1" as="geometry">
            <mxPoint x="100" y="520" as="sourcePoint" />
            <Array as="points">
              <mxPoint x="180" y="520" />
            </Array>
            <mxPoint x="260" y="520" as="targetPoint" />
            <mxPoint as="offset" />
          </mxGeometry>
        </mxCell>
        <mxCell id="RXClTzVUvRsUksylA-aP-32" value="REGISTER" style="html=1;verticalAlign=bottom;endArrow=block;edgeStyle=elbowEdgeStyle;elbow=vertical;curved=0;rounded=0;labelBackgroundColor=none;fontStyle=1;fillColor=#b0e3e6;strokeColor=#0e8088;fontColor=#0E8088;" edge="1" parent="1" source="aM9ryv3xv72pqoxQDRHE-1" target="aM9ryv3xv72pqoxQDRHE-5">
          <mxGeometry x="0.0052" relative="1" as="geometry">
            <mxPoint x="100" y="380" as="sourcePoint" />
            <Array as="points">
              <mxPoint x="180" y="380" />
            </Array>
            <mxPoint x="260" y="380" as="targetPoint" />
            <mxPoint as="offset" />
          </mxGeometry>
        </mxCell>
        <mxCell id="RXClTzVUvRsUksylA-aP-33" value="200 OK" style="html=1;verticalAlign=bottom;endArrow=none;edgeStyle=elbowEdgeStyle;elbow=horizontal;curved=0;rounded=0;labelBackgroundColor=none;startArrow=classic;startFill=1;fillColor=#d5e8d4;strokeColor=#82b366;fontColor=#82B366;fontStyle=1" edge="1" parent="1" source="RXClTzVUvRsUksylA-aP-1" target="RXClTzVUvRsUksylA-aP-2">
          <mxGeometry x="0.006" relative="1" as="geometry">
            <mxPoint x="400" y="480" as="sourcePoint" />
            <Array as="points">
              <mxPoint x="470" y="480" />
            </Array>
            <mxPoint x="540" y="480" as="targetPoint" />
            <mxPoint as="offset" />
          </mxGeometry>
        </mxCell>
        <mxCell id="RXClTzVUvRsUksylA-aP-34" value="Cx: Diameter (SAR/SAA)" style="html=1;verticalAlign=bottom;endArrow=block;edgeStyle=elbowEdgeStyle;elbow=horizontal;curved=0;rounded=0;labelBackgroundColor=none;startArrow=classic;startFill=1;fontStyle=1;fillColor=#fad7ac;strokeColor=#b46504;fontColor=#B46504;" edge="1" parent="1" source="RXClTzVUvRsUksylA-aP-2" target="RXClTzVUvRsUksylA-aP-4">
          <mxGeometry x="-0.0667" relative="1" as="geometry">
            <mxPoint x="540" y="460" as="sourcePoint" />
            <Array as="points">
              <mxPoint x="610" y="460" />
            </Array>
            <mxPoint x="690" y="460" as="targetPoint" />
            <mxPoint as="offset" />
          </mxGeometry>
        </mxCell>
        <mxCell id="RXClTzVUvRsUksylA-aP-35" value="200 OK" style="html=1;verticalAlign=bottom;endArrow=none;edgeStyle=elbowEdgeStyle;elbow=horizontal;curved=0;rounded=0;labelBackgroundColor=none;startArrow=classic;startFill=1;fillColor=#d5e8d4;strokeColor=#82b366;fontColor=#82B366;fontStyle=1" edge="1" parent="1" source="aM9ryv3xv72pqoxQDRHE-5" target="RXClTzVUvRsUksylA-aP-1">
          <mxGeometry x="0.006" relative="1" as="geometry">
            <mxPoint x="260" y="500" as="sourcePoint" />
            <Array as="points">
              <mxPoint x="330" y="500" />
            </Array>
            <mxPoint x="400" y="500" as="targetPoint" />
            <mxPoint as="offset" />
          </mxGeometry>
        </mxCell>
        <mxCell id="RXClTzVUvRsUksylA-aP-37" value="Call" style="rounded=0;whiteSpace=wrap;html=1;verticalAlign=top;align=left;fontStyle=1;spacingLeft=6;fillColor=#f5f5f5;strokeColor=#666666;fontColor=#666666;" vertex="1" parent="1">
          <mxGeometry x="40" y="600" width="720" height="560" as="geometry" />
        </mxCell>
        <mxCell id="RXClTzVUvRsUksylA-aP-38" value="IMS" style="rounded=0;whiteSpace=wrap;html=1;align=left;verticalAlign=top;fillColor=#fff2cc;fontStyle=1;strokeColor=#d6b656;spacingLeft=6;fontColor=#D6B656;" vertex="1" parent="1">
          <mxGeometry x="190" y="630" width="420" height="520" as="geometry" />
        </mxCell>
        <mxCell id="RXClTzVUvRsUksylA-aP-39" value="&lt;div&gt;OpenSIPS&lt;br&gt;&lt;/div&gt;" style="rounded=0;whiteSpace=wrap;html=1;align=left;verticalAlign=top;fontStyle=1;fillColor=#ffe6cc;strokeColor=#d79b00;spacingLeft=6;fontColor=#D79B00;" vertex="1" parent="1">
          <mxGeometry x="200" y="660" width="260" height="480" as="geometry" />
        </mxCell>
        <mxCell id="RXClTzVUvRsUksylA-aP-40" value="PJSUA" style="shape=umlLifeline;perimeter=lifelinePerimeter;whiteSpace=wrap;html=1;container=0;dropTarget=0;collapsible=0;recursiveResize=0;outlineConnect=0;portConstraint=eastwest;newEdgeStyle={&quot;edgeStyle&quot;:&quot;elbowEdgeStyle&quot;,&quot;elbow&quot;:&quot;vertical&quot;,&quot;curved&quot;:0,&quot;rounded&quot;:0};fillColor=#bac8d3;strokeColor=#23445d;fontStyle=1;fontColor=#23445D;" vertex="1" parent="1">
          <mxGeometry x="50" y="690" width="100" height="440" as="geometry" />
        </mxCell>
        <mxCell id="RXClTzVUvRsUksylA-aP-41" value="P-CSCF" style="shape=umlLifeline;perimeter=lifelinePerimeter;whiteSpace=wrap;html=1;container=0;dropTarget=0;collapsible=0;recursiveResize=0;outlineConnect=0;portConstraint=eastwest;newEdgeStyle={&quot;edgeStyle&quot;:&quot;elbowEdgeStyle&quot;,&quot;elbow&quot;:&quot;vertical&quot;,&quot;curved&quot;:0,&quot;rounded&quot;:0};fillColor=#bac8d3;strokeColor=#23445d;fontStyle=1;fontColor=#23445D;" vertex="1" parent="1">
          <mxGeometry x="210" y="690" width="100" height="440" as="geometry" />
        </mxCell>
        <mxCell id="RXClTzVUvRsUksylA-aP-42" value="S-CSCF" style="shape=umlLifeline;perimeter=lifelinePerimeter;whiteSpace=wrap;html=1;container=0;dropTarget=0;collapsible=0;recursiveResize=0;outlineConnect=0;portConstraint=eastwest;newEdgeStyle={&quot;edgeStyle&quot;:&quot;elbowEdgeStyle&quot;,&quot;elbow&quot;:&quot;vertical&quot;,&quot;curved&quot;:0,&quot;rounded&quot;:0};fillColor=#bac8d3;strokeColor=#23445d;fontStyle=1;fontColor=#23445D;" vertex="1" parent="1">
          <mxGeometry x="350" y="690" width="100" height="440" as="geometry" />
        </mxCell>
        <mxCell id="RXClTzVUvRsUksylA-aP-43" value="rtpengine" style="shape=umlLifeline;perimeter=lifelinePerimeter;whiteSpace=wrap;html=1;container=0;dropTarget=0;collapsible=0;recursiveResize=0;outlineConnect=0;portConstraint=eastwest;newEdgeStyle={&quot;edgeStyle&quot;:&quot;elbowEdgeStyle&quot;,&quot;elbow&quot;:&quot;vertical&quot;,&quot;curved&quot;:0,&quot;rounded&quot;:0};fillColor=#bac8d3;strokeColor=#23445d;fontStyle=1;fontColor=#23445D;" vertex="1" parent="1">
          <mxGeometry x="500" y="690" width="100" height="440" as="geometry" />
        </mxCell>
        <mxCell id="RXClTzVUvRsUksylA-aP-44" value="PJSUA" style="shape=umlLifeline;perimeter=lifelinePerimeter;whiteSpace=wrap;html=1;container=0;dropTarget=0;collapsible=0;recursiveResize=0;outlineConnect=0;portConstraint=eastwest;newEdgeStyle={&quot;edgeStyle&quot;:&quot;elbowEdgeStyle&quot;,&quot;elbow&quot;:&quot;vertical&quot;,&quot;curved&quot;:0,&quot;rounded&quot;:0};fillColor=#bac8d3;strokeColor=#23445d;fontStyle=1;fontColor=#23445D;" vertex="1" parent="1">
          <mxGeometry x="650" y="690" width="100" height="440" as="geometry" />
        </mxCell>
        <mxCell id="RXClTzVUvRsUksylA-aP-49" value="INVITE" style="html=1;verticalAlign=bottom;endArrow=block;edgeStyle=elbowEdgeStyle;elbow=vertical;curved=0;rounded=0;labelBackgroundColor=none;fontStyle=1;fillColor=#b0e3e6;strokeColor=#0e8088;fontColor=#0E8088;" edge="1" source="RXClTzVUvRsUksylA-aP-40" target="RXClTzVUvRsUksylA-aP-41" parent="1">
          <mxGeometry x="0.0052" relative="1" as="geometry">
            <mxPoint x="140" y="960" as="sourcePoint" />
            <Array as="points">
              <mxPoint x="180" y="760" />
            </Array>
            <mxPoint x="380" y="960" as="targetPoint" />
            <mxPoint as="offset" />
          </mxGeometry>
        </mxCell>
        <mxCell id="RXClTzVUvRsUksylA-aP-61" value="100 Giving it a try" style="html=1;verticalAlign=bottom;endArrow=none;edgeStyle=elbowEdgeStyle;elbow=horizontal;curved=0;rounded=0;labelBackgroundColor=none;fontStyle=1;fillColor=#dae8fc;strokeColor=#6c8ebf;fontColor=#6C8EBF;startArrow=classic;startFill=1;" edge="1" parent="1" source="RXClTzVUvRsUksylA-aP-40" target="RXClTzVUvRsUksylA-aP-41">
          <mxGeometry x="0.0052" relative="1" as="geometry">
            <mxPoint x="100" y="780" as="sourcePoint" />
            <Array as="points">
              <mxPoint x="180" y="780" />
            </Array>
            <mxPoint x="260" y="780" as="targetPoint" />
            <mxPoint as="offset" />
          </mxGeometry>
        </mxCell>
        <mxCell id="RXClTzVUvRsUksylA-aP-62" value="INVITE" style="html=1;verticalAlign=bottom;endArrow=block;edgeStyle=elbowEdgeStyle;elbow=vertical;curved=0;rounded=0;labelBackgroundColor=none;fontStyle=1;fillColor=#b0e3e6;strokeColor=#0e8088;fontColor=#0E8088;" edge="1" parent="1" source="RXClTzVUvRsUksylA-aP-41" target="RXClTzVUvRsUksylA-aP-42">
          <mxGeometry x="0.0052" relative="1" as="geometry">
            <mxPoint x="250" y="800" as="sourcePoint" />
            <Array as="points">
              <mxPoint x="330" y="800" />
            </Array>
            <mxPoint x="410" y="800" as="targetPoint" />
            <mxPoint as="offset" />
          </mxGeometry>
        </mxCell>
        <mxCell id="RXClTzVUvRsUksylA-aP-63" value="100 Giving it a try" style="html=1;verticalAlign=bottom;endArrow=none;edgeStyle=elbowEdgeStyle;elbow=horizontal;curved=0;rounded=0;labelBackgroundColor=none;fontStyle=1;fillColor=#dae8fc;strokeColor=#6c8ebf;fontColor=#6C8EBF;startArrow=classic;startFill=1;" edge="1" parent="1" source="RXClTzVUvRsUksylA-aP-41" target="RXClTzVUvRsUksylA-aP-42">
          <mxGeometry x="0.0052" relative="1" as="geometry">
            <mxPoint x="250" y="820" as="sourcePoint" />
            <Array as="points">
              <mxPoint x="330" y="820" />
            </Array>
            <mxPoint x="410" y="820" as="targetPoint" />
            <mxPoint as="offset" />
          </mxGeometry>
        </mxCell>
        <mxCell id="RXClTzVUvRsUksylA-aP-64" value="INVITE" style="html=1;verticalAlign=bottom;endArrow=none;edgeStyle=elbowEdgeStyle;elbow=vertical;curved=0;rounded=0;labelBackgroundColor=none;fontStyle=1;fillColor=#b0e3e6;strokeColor=#0e8088;fontColor=#0E8088;startArrow=classic;startFill=1;" edge="1" parent="1" source="RXClTzVUvRsUksylA-aP-41" target="RXClTzVUvRsUksylA-aP-42">
          <mxGeometry x="0.0052" relative="1" as="geometry">
            <mxPoint x="260" y="840" as="sourcePoint" />
            <Array as="points">
              <mxPoint x="330" y="840" />
            </Array>
            <mxPoint x="400" y="840" as="targetPoint" />
            <mxPoint as="offset" />
          </mxGeometry>
        </mxCell>
        <mxCell id="RXClTzVUvRsUksylA-aP-65" value="100 Giving it a try" style="html=1;verticalAlign=bottom;endArrow=classic;edgeStyle=elbowEdgeStyle;elbow=horizontal;curved=0;rounded=0;labelBackgroundColor=none;fontStyle=1;fillColor=#dae8fc;strokeColor=#6c8ebf;fontColor=#6C8EBF;startArrow=none;startFill=0;endFill=1;" edge="1" parent="1" source="RXClTzVUvRsUksylA-aP-41" target="RXClTzVUvRsUksylA-aP-42">
          <mxGeometry x="0.0052" relative="1" as="geometry">
            <mxPoint x="260" y="860" as="sourcePoint" />
            <Array as="points">
              <mxPoint x="330" y="860" />
            </Array>
            <mxPoint x="400" y="860" as="targetPoint" />
            <mxPoint as="offset" />
          </mxGeometry>
        </mxCell>
        <mxCell id="RXClTzVUvRsUksylA-aP-66" value="INVITE" style="html=1;verticalAlign=bottom;endArrow=block;edgeStyle=elbowEdgeStyle;elbow=vertical;curved=0;rounded=0;labelBackgroundColor=none;fontStyle=1;fillColor=#b0e3e6;strokeColor=#0e8088;fontColor=#0E8088;" edge="1" parent="1" source="RXClTzVUvRsUksylA-aP-41" target="RXClTzVUvRsUksylA-aP-44">
          <mxGeometry x="0.0052" relative="1" as="geometry">
            <mxPoint x="260" y="879.71" as="sourcePoint" />
            <Array as="points">
              <mxPoint x="330" y="879.71" />
            </Array>
            <mxPoint x="400" y="879.71" as="targetPoint" />
            <mxPoint as="offset" />
          </mxGeometry>
        </mxCell>
        <mxCell id="RXClTzVUvRsUksylA-aP-67" value="100 Trying" style="html=1;verticalAlign=bottom;endArrow=none;edgeStyle=elbowEdgeStyle;elbow=horizontal;curved=0;rounded=0;labelBackgroundColor=none;fontStyle=1;fillColor=#dae8fc;strokeColor=#6c8ebf;fontColor=#6C8EBF;startArrow=classic;startFill=1;" edge="1" parent="1" source="RXClTzVUvRsUksylA-aP-41" target="RXClTzVUvRsUksylA-aP-44">
          <mxGeometry x="0.0052" relative="1" as="geometry">
            <mxPoint x="260" y="899.71" as="sourcePoint" />
            <Array as="points">
              <mxPoint x="330" y="899.71" />
            </Array>
            <mxPoint x="400" y="899.71" as="targetPoint" />
            <mxPoint as="offset" />
          </mxGeometry>
        </mxCell>
        <mxCell id="RXClTzVUvRsUksylA-aP-68" value="200 OK" style="html=1;verticalAlign=bottom;endArrow=none;edgeStyle=elbowEdgeStyle;elbow=horizontal;curved=0;rounded=0;labelBackgroundColor=none;fontStyle=1;fillColor=#d5e8d4;strokeColor=#82b366;fontColor=#82B366;startArrow=classic;startFill=1;" edge="1" parent="1" source="RXClTzVUvRsUksylA-aP-41" target="RXClTzVUvRsUksylA-aP-44">
          <mxGeometry x="0.0052" relative="1" as="geometry">
            <mxPoint x="270" y="910" as="sourcePoint" />
            <Array as="points">
              <mxPoint x="480" y="920" />
            </Array>
            <mxPoint x="710" y="910" as="targetPoint" />
            <mxPoint as="offset" />
          </mxGeometry>
        </mxCell>
        <mxCell id="RXClTzVUvRsUksylA-aP-69" value="200 OK" style="html=1;verticalAlign=bottom;endArrow=classic;edgeStyle=elbowEdgeStyle;elbow=horizontal;curved=0;rounded=0;labelBackgroundColor=none;fontStyle=1;fillColor=#d5e8d4;strokeColor=#82b366;fontColor=#82B366;startArrow=none;startFill=0;endFill=1;" edge="1" parent="1" source="RXClTzVUvRsUksylA-aP-41" target="RXClTzVUvRsUksylA-aP-42">
          <mxGeometry x="0.0052" relative="1" as="geometry">
            <mxPoint x="100" y="950" as="sourcePoint" />
            <Array as="points">
              <mxPoint x="330" y="940" />
            </Array>
            <mxPoint x="540" y="950" as="targetPoint" />
            <mxPoint as="offset" />
          </mxGeometry>
        </mxCell>
        <mxCell id="RXClTzVUvRsUksylA-aP-70" value="200 OK" style="html=1;verticalAlign=bottom;endArrow=none;edgeStyle=elbowEdgeStyle;elbow=horizontal;curved=0;rounded=0;labelBackgroundColor=none;fontStyle=1;fillColor=#d5e8d4;strokeColor=#82b366;fontColor=#82B366;startArrow=classic;startFill=1;" edge="1" parent="1" source="RXClTzVUvRsUksylA-aP-41" target="RXClTzVUvRsUksylA-aP-42">
          <mxGeometry x="0.0052" relative="1" as="geometry">
            <mxPoint x="110" y="970" as="sourcePoint" />
            <Array as="points">
              <mxPoint x="330" y="960" />
            </Array>
            <mxPoint x="550" y="970" as="targetPoint" />
            <mxPoint as="offset" />
          </mxGeometry>
        </mxCell>
        <mxCell id="RXClTzVUvRsUksylA-aP-71" value="200 OK" style="html=1;verticalAlign=bottom;endArrow=none;edgeStyle=elbowEdgeStyle;elbow=horizontal;curved=0;rounded=0;labelBackgroundColor=none;fontStyle=1;fillColor=#d5e8d4;strokeColor=#82b366;fontColor=#82B366;startArrow=classic;startFill=1;" edge="1" parent="1" source="RXClTzVUvRsUksylA-aP-40" target="RXClTzVUvRsUksylA-aP-41">
          <mxGeometry x="0.0052" relative="1" as="geometry">
            <mxPoint x="110" y="990" as="sourcePoint" />
            <Array as="points">
              <mxPoint x="190" y="980" />
            </Array>
            <mxPoint x="250" y="990" as="targetPoint" />
            <mxPoint as="offset" />
          </mxGeometry>
        </mxCell>
        <mxCell id="RXClTzVUvRsUksylA-aP-72" value="RTP" style="html=1;verticalAlign=bottom;endArrow=none;edgeStyle=elbowEdgeStyle;elbow=vertical;curved=0;rounded=0;labelBackgroundColor=none;fontStyle=1;fontColor=#666666;dashed=1;fillColor=#f5f5f5;strokeColor=#666666;dashPattern=8 8;startArrow=classic;startFill=1;" edge="1" parent="1" source="RXClTzVUvRsUksylA-aP-43" target="RXClTzVUvRsUksylA-aP-44">
          <mxGeometry x="0.0052" relative="1" as="geometry">
            <mxPoint x="260" y="960.29" as="sourcePoint" />
            <Array as="points">
              <mxPoint x="620" y="1000" />
            </Array>
            <mxPoint x="700" y="960.29" as="targetPoint" />
            <mxPoint as="offset" />
          </mxGeometry>
        </mxCell>
        <mxCell id="RXClTzVUvRsUksylA-aP-73" value="RTP" style="html=1;verticalAlign=bottom;endArrow=none;edgeStyle=elbowEdgeStyle;elbow=vertical;curved=0;rounded=0;labelBackgroundColor=none;fontStyle=1;fontColor=#666666;dashed=1;fillColor=#f5f5f5;strokeColor=#666666;dashPattern=8 8;startArrow=classic;startFill=1;" edge="1" parent="1" source="RXClTzVUvRsUksylA-aP-40" target="RXClTzVUvRsUksylA-aP-43">
          <mxGeometry x="0.0052" relative="1" as="geometry">
            <mxPoint x="300" y="1050" as="sourcePoint" />
            <Array as="points">
              <mxPoint x="320" y="1000" />
            </Array>
            <mxPoint x="450" y="1050" as="targetPoint" />
            <mxPoint as="offset" />
          </mxGeometry>
        </mxCell>
        <mxCell id="RXClTzVUvRsUksylA-aP-74" value="ACK" style="html=1;verticalAlign=bottom;endArrow=block;edgeStyle=elbowEdgeStyle;elbow=vertical;curved=0;rounded=0;labelBackgroundColor=none;fontStyle=1;fillColor=#fad7ac;strokeColor=#b46504;fontColor=#B46504;" edge="1" parent="1" source="RXClTzVUvRsUksylA-aP-40" target="RXClTzVUvRsUksylA-aP-41">
          <mxGeometry x="0.0052" relative="1" as="geometry">
            <mxPoint x="100" y="1020.0699999999999" as="sourcePoint" />
            <Array as="points">
              <mxPoint x="170" y="1020" />
            </Array>
            <mxPoint x="260" y="1020.0699999999999" as="targetPoint" />
            <mxPoint as="offset" />
          </mxGeometry>
        </mxCell>
        <mxCell id="RXClTzVUvRsUksylA-aP-75" value="ACK" style="html=1;verticalAlign=bottom;endArrow=block;edgeStyle=elbowEdgeStyle;elbow=vertical;curved=0;rounded=0;labelBackgroundColor=none;fontStyle=1;fillColor=#fad7ac;strokeColor=#b46504;fontColor=#B46504;" edge="1" parent="1" source="RXClTzVUvRsUksylA-aP-41" target="RXClTzVUvRsUksylA-aP-42">
          <mxGeometry x="0.0052" relative="1" as="geometry">
            <mxPoint x="250" y="1040" as="sourcePoint" />
            <Array as="points">
              <mxPoint x="320" y="1040" />
            </Array>
            <mxPoint x="410" y="1040" as="targetPoint" />
            <mxPoint as="offset" />
          </mxGeometry>
        </mxCell>
        <mxCell id="RXClTzVUvRsUksylA-aP-76" value="ACK" style="html=1;verticalAlign=bottom;endArrow=none;edgeStyle=elbowEdgeStyle;elbow=vertical;curved=0;rounded=0;labelBackgroundColor=none;fontStyle=1;fillColor=#fad7ac;strokeColor=#b46504;fontColor=#B46504;startFill=1;startArrow=classic;" edge="1" parent="1" source="RXClTzVUvRsUksylA-aP-41" target="RXClTzVUvRsUksylA-aP-42">
          <mxGeometry x="0.0052" relative="1" as="geometry">
            <mxPoint x="270" y="1050" as="sourcePoint" />
            <Array as="points">
              <mxPoint x="330" y="1060" />
            </Array>
            <mxPoint x="410" y="1050" as="targetPoint" />
            <mxPoint as="offset" />
          </mxGeometry>
        </mxCell>
        <mxCell id="RXClTzVUvRsUksylA-aP-77" value="ACK" style="html=1;verticalAlign=bottom;endArrow=block;edgeStyle=elbowEdgeStyle;elbow=vertical;curved=0;rounded=0;labelBackgroundColor=none;fontStyle=1;fillColor=#fad7ac;strokeColor=#b46504;fontColor=#B46504;" edge="1" parent="1" source="RXClTzVUvRsUksylA-aP-41" target="RXClTzVUvRsUksylA-aP-44">
          <mxGeometry x="0.0052" relative="1" as="geometry">
            <mxPoint x="270" y="1070" as="sourcePoint" />
            <Array as="points">
              <mxPoint x="470" y="1080" />
            </Array>
            <mxPoint x="410" y="1070" as="targetPoint" />
            <mxPoint as="offset" />
          </mxGeometry>
        </mxCell>
        <mxCell id="RXClTzVUvRsUksylA-aP-78" value="RTP" style="html=1;verticalAlign=bottom;endArrow=classic;edgeStyle=elbowEdgeStyle;elbow=vertical;curved=0;rounded=0;labelBackgroundColor=none;fontStyle=1;fontColor=#666666;dashed=1;fillColor=#f5f5f5;strokeColor=#666666;dashPattern=8 8;startArrow=none;startFill=0;endFill=1;" edge="1" parent="1" source="RXClTzVUvRsUksylA-aP-43" target="RXClTzVUvRsUksylA-aP-44">
          <mxGeometry x="0.0052" relative="1" as="geometry">
            <mxPoint x="550" y="1100" as="sourcePoint" />
            <Array as="points">
              <mxPoint x="620" y="1100" />
            </Array>
            <mxPoint x="700" y="1100" as="targetPoint" />
            <mxPoint as="offset" />
          </mxGeometry>
        </mxCell>
        <mxCell id="RXClTzVUvRsUksylA-aP-79" value="RTP" style="html=1;verticalAlign=bottom;endArrow=classic;edgeStyle=elbowEdgeStyle;elbow=vertical;curved=0;rounded=0;labelBackgroundColor=none;fontStyle=1;fontColor=#666666;dashed=1;fillColor=#f5f5f5;strokeColor=#666666;dashPattern=8 8;startArrow=none;startFill=0;endFill=1;" edge="1" parent="1" source="RXClTzVUvRsUksylA-aP-40" target="RXClTzVUvRsUksylA-aP-43">
          <mxGeometry x="0.0052" relative="1" as="geometry">
            <mxPoint x="100" y="1100" as="sourcePoint" />
            <Array as="points">
              <mxPoint x="320" y="1100" />
            </Array>
            <mxPoint x="550" y="1100" as="targetPoint" />
            <mxPoint as="offset" />
          </mxGeometry>
        </mxCell>
      </root>
    </mxGraphModel>
  </diagram>
</mxfile>
